<svg width="2000px" height="1137px"
 viewBox="0.00 0.00 959.19 545.01" xmlns="http://www.w3.org/2000/svg" xmlns:xlink="http://www.w3.org/1999/xlink">
<g id="graph0" class="graph" transform="scale(1.0 1.0) rotate(0) translate(4 541.01)">
<title>ContextMapGraph</title>
<polygon fill="white" stroke="transparent" points="-4,4 -4,-541.01 955.19,-541.01 955.19,4 -4,4"/>
<!-- CatalogProductosContext -->
<g id="node1" class="node">
<title>CatalogProductosContext</title>
<polygon fill="none" stroke="black" stroke-width="2" points="352.05,-481.5 354.09,-484.32 355.63,-487.14 356.68,-489.95 357.22,-492.74 357.24,-495.5 356.75,-498.22 355.75,-500.88 354.23,-503.49 352.19,-506.02 349.65,-508.47 346.6,-510.83 343.05,-513.1 339,-515.26 334.48,-517.31 329.5,-519.25 324.06,-521.07 318.18,-522.76 311.88,-524.32 305.19,-525.76 298.11,-527.06 290.68,-528.22 282.9,-529.26 274.82,-530.15 266.46,-530.92 257.83,-531.55 248.97,-532.05 239.91,-532.42 230.68,-532.67 221.3,-532.79 211.8,-532.8 202.22,-532.68 192.59,-532.46 182.93,-532.13 173.28,-531.7 163.66,-531.17 154.11,-530.55 144.66,-529.84 135.33,-529.04 126.15,-528.16 117.15,-527.21 108.35,-526.19 99.79,-525.1 91.48,-523.94 83.45,-522.73 75.71,-521.46 68.3,-520.14 61.23,-518.76 54.52,-517.34 48.19,-515.87 42.24,-514.35 36.7,-512.8 31.58,-511.2 26.88,-509.57 22.63,-507.9 18.81,-506.19 15.45,-504.45 12.55,-502.67 10.11,-500.86 8.13,-499.02 6.61,-497.15 5.57,-495.25 4.98,-493.33 4.86,-491.37 5.2,-489.39 5.99,-487.39 7.22,-485.37 8.9,-483.34 11.02,-481.28 13.56,-479.22 16.51,-477.15 19.88,-475.08 23.64,-473.01 27.78,-470.95 32.3,-468.89 37.18,-466.86 42.41,-464.85 47.98,-462.87 53.87,-460.92 60.06,-459.02 66.54,-457.16 73.3,-455.37 80.32,-453.64 87.59,-451.98 95.08,-450.4 102.79,-448.92 110.68,-447.52 118.76,-446.23 126.99,-445.05 135.36,-443.99 143.85,-443.05 152.44,-442.25 161.12,-441.58 169.85,-441.05 178.63,-440.67 187.43,-440.44 196.23,-440.36 205.01,-440.45 213.75,-440.69 222.43,-441.1 231.02,-441.67 239.5,-442.4 247.86,-443.3 256.06,-444.35 264.09,-445.57 271.93,-446.93 279.55,-448.45 286.93,-450.12 294.05,-451.92 300.89,-453.86 307.43,-455.93 313.64,-458.11 319.52,-460.4 325.03,-462.8 330.16,-465.28 334.89,-467.85 339.22,-470.48 343.11,-473.17 346.55,-475.92 349.54,-478.7 352.05,-481.5"/>
<text text-anchor="middle" x="178.58" y="-484.83" font-family="sans-serif" font-size="16.00">CatalogProductosContext</text>
</g>
<!-- GestionOrdenesContext -->
<g id="node2" class="node">
<title>GestionOrdenesContext</title>
<polygon fill="none" stroke="black" stroke-width="2" points="332.79,-324.99 337.29,-327.6 341.33,-330.24 344.91,-332.91 348,-335.58 350.58,-338.26 352.65,-340.93 354.19,-343.57 355.19,-346.19 355.65,-348.77 355.56,-351.3 354.92,-353.78 353.73,-356.19 351.99,-358.53 349.71,-360.8 346.88,-362.98 343.52,-365.07 339.64,-367.06 335.25,-368.96 330.38,-370.75 325.02,-372.44 319.21,-374.02 312.96,-375.5 306.3,-376.85 299.26,-378.1 291.85,-379.23 284.1,-380.25 276.04,-381.16 267.71,-381.95 259.13,-382.64 250.33,-383.22 241.35,-383.69 232.21,-384.05 222.95,-384.32 213.61,-384.48 204.2,-384.55 194.77,-384.52 185.34,-384.4 175.96,-384.19 166.63,-383.89 157.41,-383.51 148.31,-383.05 139.35,-382.5 130.58,-381.89 122.01,-381.19 113.67,-380.43 105.57,-379.59 97.74,-378.68 90.2,-377.7 82.96,-376.66 76.05,-375.55 69.47,-374.38 63.24,-373.14 57.37,-371.83 51.88,-370.47 46.76,-369.04 42.03,-367.56 37.69,-366.01 33.75,-364.4 30.21,-362.73 27.07,-361.01 24.34,-359.23 22.01,-357.39 20.08,-355.5 18.56,-353.56 17.44,-351.58 16.71,-349.54 16.38,-347.46 16.44,-345.35 16.88,-343.19 17.7,-341.01 18.9,-338.79 20.47,-336.56 22.4,-334.3 24.68,-332.04 27.32,-329.77 30.3,-327.5 33.62,-325.24 37.28,-323 41.25,-320.78 45.55,-318.59 50.15,-316.44 55.05,-314.34 60.25,-312.3 65.74,-310.31 71.5,-308.4 77.53,-306.58 83.82,-304.84 90.35,-303.2 97.13,-301.66 104.13,-300.24 111.35,-298.94 118.77,-297.76 126.38,-296.72 134.16,-295.83 142.1,-295.07 150.19,-294.47 158.41,-294.02 166.74,-293.73 175.16,-293.6 183.65,-293.64 192.19,-293.84 200.77,-294.2 209.35,-294.73 217.92,-295.43 226.46,-296.28 234.93,-297.3 243.32,-298.47 251.59,-299.79 259.73,-301.26 267.71,-302.87 275.49,-304.61 283.06,-306.48 290.39,-308.47 297.45,-310.57 304.22,-312.77 310.67,-315.07 316.77,-317.45 322.51,-319.9 327.86,-322.42 332.79,-324.99"/>
<text text-anchor="middle" x="178.58" y="-338.56" font-family="sans-serif" font-size="16.00">GestionOrdenesContext</text>
</g>
<!-- CatalogProductosContext&#45;&gt;GestionOrdenesContext -->
<g id="edge1" class="edge">
<title>CatalogProductosContext&#45;&gt;GestionOrdenesContext</title>
<path fill="none" stroke="black" stroke-width="2" d="M178.58,-440.39C178.58,-422.31 178.58,-401.85 178.58,-384.4"/>
<text text-anchor="middle" x="254.08" y="-412.64" font-family="sans-serif" font-size="12.00"> &#160;&#160;&#160;&#160;&#160;&#160;&#160;&#160;&#160;&#160;&#160;&#160;&#160;&#160;&#160;&#160;&#160;&#160;&#160;&#160;&#160;&#160;&#160;&#160;&#160;&#160;&#160;&#160;&#160;&#160;&#160;&#160;&#160;&#160;&#160;&#160;&#160;&#160;&#160;</text>
<polygon fill="white" stroke="transparent" points="171.58,-375.4 171.58,-392.4 185.58,-392.4 185.58,-375.4 171.58,-375.4"/>
<text text-anchor="start" x="173.58" y="-380.8" font-family="sans-serif" font-size="12.00">D</text>
<polygon fill="white" stroke="transparent" points="154.58,-430.39 154.58,-449.39 170.58,-449.39 170.58,-430.39 154.58,-430.39"/>
<polyline fill="none" stroke="black" points="170.58,-430.39 170.58,-449.39 "/>
<text text-anchor="start" x="157.58" y="-436.79" font-family="sans-serif" font-size="12.00">U</text>
<polygon fill="white" stroke="transparent" points="170.58,-430.39 170.58,-449.39 203.58,-449.39 203.58,-430.39 170.58,-430.39"/>
<polygon fill="none" stroke="black" points="170.58,-430.39 170.58,-449.39 203.58,-449.39 203.58,-430.39 170.58,-430.39"/>
<text text-anchor="start" x="173.58" y="-436.79" font-family="sans-serif" font-size="12.00">OHS</text>
</g>
<!-- GestionClientesContext -->
<g id="node3" class="node">
<title>GestionClientesContext</title>
<polygon fill="none" stroke="black" stroke-width="2" points="733.46,-221.77 727.13,-224.09 720.47,-226.33 713.51,-228.46 706.28,-230.5 698.8,-232.42 691.09,-234.22 683.19,-235.89 675.12,-237.43 666.91,-238.82 658.58,-240.06 650.16,-241.16 641.68,-242.09 633.16,-242.87 624.62,-243.49 616.09,-243.94 607.59,-244.22 599.15,-244.35 590.78,-244.3 582.5,-244.1 574.33,-243.73 566.29,-243.21 558.4,-242.53 550.67,-241.71 543.12,-240.74 535.76,-239.63 528.61,-238.39 521.67,-237.03 514.96,-235.54 508.48,-233.95 502.26,-232.25 496.29,-230.45 490.59,-228.57 485.17,-226.61 480.02,-224.58 475.17,-222.49 470.62,-220.35 466.36,-218.16 462.42,-215.93 458.8,-213.68 455.5,-211.4 452.52,-209.12 449.88,-206.82 447.58,-204.53 445.63,-202.25 444.02,-199.98 442.77,-197.74 441.89,-195.51 441.36,-193.32 441.21,-191.17 441.43,-189.05 442.04,-186.98 443.02,-184.95 444.39,-182.97 446.14,-181.05 448.29,-179.18 450.83,-177.37 453.75,-175.62 457.07,-173.92 460.78,-172.29 464.88,-170.72 469.36,-169.21 474.21,-167.77 479.44,-166.39 485.04,-165.08 490.99,-163.83 497.29,-162.65 503.93,-161.53 510.89,-160.49 518.16,-159.51 525.72,-158.61 533.55,-157.77 541.64,-157.01 549.96,-156.32 558.5,-155.7 567.22,-155.16 576.11,-154.7 585.14,-154.32 594.29,-154.03 603.51,-153.82 612.79,-153.69 622.09,-153.66 631.39,-153.72 640.65,-153.87 649.84,-154.11 658.92,-154.46 667.88,-154.91 676.67,-155.46 685.26,-156.12 693.62,-156.88 701.73,-157.75 709.55,-158.73 717.04,-159.82 724.2,-161.02 730.98,-162.33 737.36,-163.75 743.32,-165.27 748.84,-166.9 753.89,-168.64 758.46,-170.48 762.53,-172.41 766.09,-174.44 769.13,-176.56 771.62,-178.77 773.58,-181.05 774.99,-183.4 775.84,-185.82 776.14,-188.3 775.9,-190.83 775.1,-193.41 773.77,-196.01 771.9,-198.64 769.51,-201.29 766.61,-203.94 763.22,-206.58 759.35,-209.21 755.01,-211.81 750.23,-214.38 745.03,-216.9 739.43,-219.37 733.46,-221.77"/>
<text text-anchor="middle" x="600.58" y="-191.82" font-family="sans-serif" font-size="16.00">GestionClientesContext</text>
</g>
<!-- GestionOrdenesContext&#45;&gt;GestionClientesContext -->
<g id="edge2" class="edge">
<title>GestionOrdenesContext&#45;&gt;GestionClientesContext</title>
<path fill="none" stroke="black" stroke-width="2" d="M281.54,-306.05C347.67,-283.37 433.17,-254.04 499.02,-231.46"/>
<text text-anchor="middle" x="436.08" y="-265.88" font-family="sans-serif" font-size="12.00">Partnership</text>
</g>
<!-- GestionPagosContext -->
<g id="node5" class="node">
<title>GestionPagosContext</title>
<polygon fill="none" stroke="black" stroke-width="2" points="217.29,-152.96 227.01,-153.65 236.56,-154.45 245.9,-155.36 255,-156.38 263.82,-157.5 272.32,-158.73 280.47,-160.05 288.24,-161.46 295.6,-162.96 302.52,-164.55 308.98,-166.22 314.95,-167.96 320.42,-169.77 325.37,-171.64 329.79,-173.58 333.66,-175.57 336.98,-177.61 339.74,-179.69 341.94,-181.81 343.59,-183.96 344.68,-186.14 345.22,-188.35 345.22,-190.57 344.7,-192.8 343.66,-195.03 342.12,-197.26 340.1,-199.49 337.61,-201.71 334.68,-203.91 331.33,-206.08 327.58,-208.23 323.46,-210.35 318.99,-212.43 314.19,-214.46 309.1,-216.45 303.72,-218.38 298.1,-220.26 292.26,-222.07 286.21,-223.81 279.98,-225.49 273.6,-227.08 267.08,-228.6 260.46,-230.03 253.74,-231.37 246.94,-232.62 240.09,-233.78 233.2,-234.84 226.28,-235.79 219.34,-236.64 212.41,-237.38 205.48,-238.02 198.57,-238.54 191.7,-238.95 184.85,-239.24 178.05,-239.41 171.3,-239.47 164.6,-239.41 157.97,-239.23 151.39,-238.93 144.88,-238.51 138.45,-237.97 132.09,-237.32 125.81,-236.54 119.61,-235.66 113.51,-234.66 107.5,-233.55 101.59,-232.33 95.79,-231.01 90.11,-229.58 84.55,-228.06 79.13,-226.44 73.85,-224.73 68.73,-222.94 63.79,-221.06 59.02,-219.11 54.45,-217.09 50.09,-215 45.97,-212.86 42.09,-210.66 38.47,-208.42 35.14,-206.13 32.1,-203.82 29.39,-201.47 27.01,-199.11 24.98,-196.74 23.34,-194.36 22.08,-191.98 21.23,-189.61 20.8,-187.26 20.82,-184.93 21.29,-182.63 22.22,-180.37 23.63,-178.15 25.52,-175.99 27.9,-173.88 30.78,-171.83 34.16,-169.85 38.04,-167.95 42.41,-166.13 47.27,-164.39 52.62,-162.75 58.43,-161.2 64.71,-159.76 71.43,-158.41 78.58,-157.18 86.13,-156.05 94.06,-155.04 102.34,-154.15 110.95,-153.38 119.86,-152.72 129.03,-152.19 138.43,-151.79 148.02,-151.5 157.76,-151.34 167.63,-151.31 177.57,-151.4 187.55,-151.61 197.52,-151.94 207.45,-152.39 217.29,-152.96"/>
<text text-anchor="middle" x="178.58" y="-191.82" font-family="sans-serif" font-size="16.00">GestionPagosContext</text>
</g>
<!-- GestionOrdenesContext&#45;&gt;GestionPagosContext -->
<g id="edge3" class="edge">
<title>GestionOrdenesContext&#45;&gt;GestionPagosContext</title>
<path fill="none" stroke="black" stroke-width="2" d="M178.58,-293.57C178.58,-276.11 178.58,-256.49 178.58,-239.49"/>
<text text-anchor="middle" x="213.08" y="-265.88" font-family="sans-serif" font-size="12.00">Partnership</text>
</g>
<!-- GestionEnviosContext -->
<g id="node4" class="node">
<title>GestionEnviosContext</title>
<polygon fill="none" stroke="black" stroke-width="2" points="456.31,-66.25 452.1,-63.64 448.31,-61 444.97,-58.33 442.08,-55.66 439.66,-52.98 437.73,-50.32 436.29,-47.67 435.35,-45.05 434.92,-42.47 435,-39.94 435.6,-37.47 436.71,-35.05 438.34,-32.71 440.48,-30.45 443.13,-28.27 446.27,-26.18 449.9,-24.18 454,-22.28 458.57,-20.49 463.58,-18.8 469.01,-17.22 474.86,-15.75 481.09,-14.39 487.68,-13.14 494.61,-12.01 501.86,-10.99 509.4,-10.08 517.19,-9.29 525.22,-8.6 533.45,-8.03 541.86,-7.56 550.4,-7.19 559.07,-6.93 567.81,-6.76 576.61,-6.7 585.43,-6.73 594.25,-6.85 603.04,-7.06 611.76,-7.35 620.39,-7.73 628.91,-8.2 637.28,-8.74 645.49,-9.36 653.51,-10.05 661.31,-10.82 668.89,-11.66 676.21,-12.56 683.27,-13.54 690.04,-14.58 696.51,-15.69 702.66,-16.87 708.49,-18.11 713.98,-19.41 719.12,-20.77 723.91,-22.2 728.33,-23.69 732.39,-25.24 736.08,-26.84 739.39,-28.51 742.33,-30.24 744.89,-32.02 747.06,-33.85 748.87,-35.74 750.29,-37.68 751.34,-39.67 752.02,-41.7 752.33,-43.78 752.28,-45.9 751.86,-48.05 751.09,-50.24 749.97,-52.45 748.51,-54.69 746.7,-56.94 744.56,-59.2 742.09,-61.47 739.3,-63.74 736.2,-66 732.78,-68.24 729.06,-70.46 725.04,-72.65 720.74,-74.8 716.15,-76.9 711.29,-78.95 706.15,-80.93 700.76,-82.84 695.12,-84.67 689.24,-86.41 683.12,-88.05 676.79,-89.58 670.23,-91 663.48,-92.31 656.54,-93.48 649.42,-94.52 642.14,-95.42 634.71,-96.17 627.14,-96.77 619.45,-97.22 611.66,-97.51 603.78,-97.64 595.84,-97.61 587.84,-97.41 579.82,-97.04 571.79,-96.51 563.77,-95.82 555.79,-94.96 547.86,-93.95 540.02,-92.78 532.27,-91.45 524.66,-89.99 517.2,-88.38 509.91,-86.63 502.83,-84.76 495.97,-82.77 489.37,-80.67 483.04,-78.47 477,-76.17 471.29,-73.79 465.93,-71.34 460.92,-68.82 456.31,-66.25"/>
<text text-anchor="middle" x="600.58" y="-45.08" font-family="sans-serif" font-size="16.00">GestionEnviosContext</text>
</g>
<!-- GestionClientesContext&#45;&gt;GestionEnviosContext -->
<g id="edge4" class="edge">
<title>GestionClientesContext&#45;&gt;GestionEnviosContext</title>
<path fill="none" stroke="black" stroke-width="2" d="M600.58,-153.53C600.58,-136.15 600.58,-115.78 600.58,-97.73"/>
<text text-anchor="middle" x="635.08" y="-119.16" font-family="sans-serif" font-size="12.00">Partnership</text>
</g>
<!-- GesionAutorizacionAunteticacionContext -->
<g id="node6" class="node">
<title>GesionAutorizacionAunteticacionContext</title>
<polygon fill="none" stroke="black" stroke-width="2" points="599.88,-385.15 582.94,-384.51 566.28,-383.76 549.97,-382.9 534.07,-381.93 518.64,-380.85 503.76,-379.67 489.47,-378.39 475.84,-377.02 462.9,-375.56 450.72,-374.01 439.34,-372.38 428.79,-370.67 419.1,-368.89 410.31,-367.04 402.44,-365.13 395.51,-363.17 389.54,-361.15 384.52,-359.08 380.48,-356.97 377.39,-354.83 375.27,-352.66 374.1,-350.46 373.86,-348.25 374.54,-346.02 376.11,-343.78 378.55,-341.54 381.82,-339.31 385.9,-337.08 390.75,-334.87 396.34,-332.68 402.62,-330.52 409.55,-328.39 417.09,-326.29 425.21,-324.23 433.84,-322.22 442.97,-320.27 452.53,-318.37 462.49,-316.53 472.8,-314.76 483.43,-313.06 494.34,-311.43 505.49,-309.88 516.84,-308.42 528.37,-307.05 540.03,-305.76 551.8,-304.57 563.65,-303.48 575.57,-302.5 587.51,-301.61 599.47,-300.84 611.43,-300.17 623.36,-299.61 635.26,-299.17 647.1,-298.85 658.89,-298.64 670.6,-298.55 682.23,-298.58 693.78,-298.72 705.22,-298.99 716.56,-299.37 727.79,-299.88 738.9,-300.5 749.88,-301.24 760.72,-302.09 771.43,-303.06 781.97,-304.14 792.36,-305.33 802.56,-306.62 812.57,-308.01 822.38,-309.51 831.96,-311.1 841.3,-312.78 850.37,-314.54 859.16,-316.39 867.64,-318.31 875.78,-320.31 883.56,-322.37 890.95,-324.49 897.92,-326.66 904.43,-328.89 910.46,-331.15 915.97,-333.45 920.93,-335.77 925.31,-338.12 929.07,-340.48 932.18,-342.85 934.62,-345.21 936.34,-347.57 937.33,-349.92 937.54,-352.25 936.98,-354.54 935.59,-356.81 933.38,-359.03 930.33,-361.2 926.41,-363.32 921.63,-365.38 915.97,-367.37 909.44,-369.29 902.05,-371.13 893.79,-372.88 884.68,-374.55 874.75,-376.13 864.01,-377.6 852.48,-378.98 840.21,-380.25 827.22,-381.41 813.57,-382.45 799.28,-383.39 784.42,-384.2 769.02,-384.9 753.16,-385.48 736.89,-385.93 720.27,-386.26 703.37,-386.47 686.26,-386.55 668.99,-386.52 651.65,-386.35 634.3,-386.07 617.02,-385.67 599.88,-385.15"/>
<text text-anchor="middle" x="662.58" y="-338.56" font-family="sans-serif" font-size="16.00">GesionAutorizacionAunteticacionContext</text>
</g>
<!-- GesionAutorizacionAunteticacionContext&#45;&gt;GestionClientesContext -->
<g id="edge5" class="edge">
<title>GesionAutorizacionAunteticacionContext&#45;&gt;GestionClientesContext</title>
<path fill="none" stroke="black" stroke-width="2" d="M644.31,-298.72C636.92,-281.46 628.36,-261.47 620.78,-243.77"/>
<text text-anchor="middle" x="708.08" y="-265.88" font-family="sans-serif" font-size="12.00"> &#160;&#160;&#160;&#160;&#160;&#160;&#160;&#160;&#160;&#160;&#160;&#160;&#160;&#160;&#160;&#160;&#160;&#160;&#160;&#160;&#160;&#160;&#160;&#160;&#160;&#160;&#160;&#160;&#160;&#160;&#160;&#160;&#160;&#160;&#160;&#160;&#160;&#160;&#160;</text>
<polygon fill="white" stroke="transparent" points="601.78,-233.77 601.78,-252.77 617.78,-252.77 617.78,-233.77 601.78,-233.77"/>
<polyline fill="none" stroke="black" points="617.78,-233.77 617.78,-252.77 "/>
<text text-anchor="start" x="604.78" y="-240.17" font-family="sans-serif" font-size="12.00">D</text>
<polygon fill="white" stroke="transparent" points="617.78,-233.77 617.78,-252.77 639.78,-252.77 639.78,-233.77 617.78,-233.77"/>
<polygon fill="none" stroke="black" points="617.78,-233.77 617.78,-252.77 639.78,-252.77 639.78,-233.77 617.78,-233.77"/>
<text text-anchor="start" x="620.78" y="-240.17" font-family="sans-serif" font-size="12.00">CF</text>
<polygon fill="white" stroke="transparent" points="626.31,-288.72 626.31,-307.72 642.31,-307.72 642.31,-288.72 626.31,-288.72"/>
<polyline fill="none" stroke="black" points="642.31,-288.72 642.31,-307.72 "/>
<text text-anchor="start" x="629.31" y="-295.12" font-family="sans-serif" font-size="12.00">U</text>
<polygon fill="white" stroke="transparent" points="642.31,-288.72 642.31,-307.72 663.31,-307.72 663.31,-288.72 642.31,-288.72"/>
<polygon fill="none" stroke="black" points="642.31,-288.72 642.31,-307.72 663.31,-307.72 663.31,-288.72 642.31,-288.72"/>
<text text-anchor="start" x="645.31" y="-295.12" font-family="sans-serif" font-size="12.00">PL</text>
</g>
</g>
</svg>
